<svg aria-hidden="true" style="position: absolute; width: 0; height: 0; overflow: hidden;" version="1.1" xmlns="http://www.w3.org/2000/svg" xmlns:xlink="http://www.w3.org/1999/xlink">
<defs>
<symbol id="icon-fiber_manual_record" viewBox="0 0 24 24">
<title>fiber_manual_record</title>
<path d="M3.984 12c0-4.406 3.609-8.016 8.016-8.016s8.016 3.609 8.016 8.016-3.609 8.016-8.016 8.016-8.016-3.609-8.016-8.016z"></path>
</symbol>
<symbol id="icon-play_arrow" viewBox="0 0 24 24">
<title>play_arrow</title>
<path d="M8.016 5.016l10.969 6.984-10.969 6.984v-13.969z"></path>
</symbol>
<symbol id="icon-menu" viewBox="0 0 24 24">
<title>menu</title>
<path d="M21 11h-18c-0.6 0-1 0.4-1 1s0.4 1 1 1h18c0.6 0 1-0.4 1-1s-0.4-1-1-1z"></path>
<path d="M3 7h18c0.6 0 1-0.4 1-1s-0.4-1-1-1h-18c-0.6 0-1 0.4-1 1s0.4 1 1 1z"></path>
<path d="M21 17h-18c-0.6 0-1 0.4-1 1s0.4 1 1 1h18c0.6 0 1-0.4 1-1s-0.4-1-1-1z"></path>
</symbol>
<symbol id="icon-play" viewBox="0 0 24 24">
<title>play</title>
<path d="M19.5 11.2l-14-9c-0.3-0.2-0.7-0.2-1 0-0.3 0.1-0.5 0.4-0.5 0.8v18c0 0.4 0.2 0.7 0.5 0.9 0.2 0.1 0.3 0.1 0.5 0.1s0.4-0.1 0.5-0.2l14-9c0.3-0.2 0.5-0.5 0.5-0.8s-0.2-0.7-0.5-0.8zM6 19.2v-14.4l11.2 7.2-11.2 7.2z"></path>
</symbol>
<symbol id="icon-instagram" viewBox="0 0 24 24">
<title>instagram</title>
<path d="M17 1h-10c-3.3 0-6 2.7-6 6v10c0 3.3 2.7 6 6 6h10c3.3 0 6-2.7 6-6v-10c0-3.3-2.7-6-6-6zM21 17c0 2.2-1.8 4-4 4h-10c-2.2 0-4-1.8-4-4v-10c0-2.2 1.8-4 4-4h10c2.2 0 4 1.8 4 4v10z"></path>
<path d="M12.8 7c-0.5-0.1-1-0.1-1.5 0-2.7 0.4-4.6 3-4.2 5.7 0.2 1.3 0.9 2.5 2 3.3 0.9 0.6 1.9 1 3 1 0.2 0 0.5 0 0.7-0.1 1.3-0.2 2.5-0.9 3.3-2s1.1-2.4 0.9-3.7c-0.3-2.2-2-3.9-4.2-4.2zM14.5 13.7c-0.5 0.6-1.2 1.1-2 1.2-1.6 0.2-3.2-0.9-3.4-2.5-0.3-1.6 0.9-3.2 2.5-3.4 0.1 0 0.3 0 0.4 0s0.3 0 0.4 0c1.3 0.2 2.3 1.2 2.5 2.5 0.2 0.8 0 1.6-0.4 2.2z"></path>
<path d="M16.8 5.8c-0.2 0.2-0.3 0.4-0.3 0.7s0.1 0.5 0.3 0.7c0.2 0.2 0.5 0.3 0.7 0.3 0.3 0 0.5-0.1 0.7-0.3s0.3-0.5 0.3-0.7c0-0.3-0.1-0.5-0.3-0.7-0.4-0.4-1-0.4-1.4 0z"></path>
</symbol>
<symbol id="icon-logo" viewBox="0 0 32 32">
<title>logo</title>
<path d="M5.465 22.695c-0.703-0.484-1.157-1.201-1.157-2.257 0-1.758 1.275-2.872 3.047-2.872 1.774 0 3.048 1.128 3.048 2.843 0 0.967-0.41 1.714-1.216 2.286 0.806 0.571 1.216 1.319 1.216 2.286 0 1.714-1.274 2.842-3.048 2.842-1.772 0-3.047-1.113-3.047-2.871 0-0.997 0.41-1.744 1.157-2.257zM9.084 20.438c0-0.938-0.689-1.553-1.714-1.553s-1.744 0.615-1.744 1.553c0 1.026 0.85 1.597 1.744 1.597s1.714-0.571 1.714-1.597zM5.626 24.952c0 0.937 0.718 1.553 1.744 1.553s1.714-0.615 1.714-1.553c0-1.026-0.82-1.597-1.714-1.597s-1.744 0.571-1.744 1.597z"></path>
<path d="M18.438 5.058l-3.443 3.443 0.909 0.938 2.432-2.433v8.308h1.319v-10.257z"></path>
<path d="M24.849 14.354c-0.982 0-1.73 0.82-1.978 1.875l-1.129-0.909c0.396-1.245 1.539-2.285 3.063-2.285 1.627 0 2.974 1.187 2.974 2.901 0 0.997-0.454 1.759-1.083 2.213 0.688 0.483 1.083 1.259 1.083 2.256 0 1.817-1.319 2.887-2.945 2.887-1.568 0-2.726-0.997-3.107-2.374l1.144-0.879c0.219 1.143 0.952 1.935 1.978 1.935 0.893 0 1.611-0.601 1.611-1.597 0-0.982-0.703-1.524-1.524-1.567h-0.615v-1.319h0.615c0.82-0.044 1.524-0.615 1.524-1.553 0-0.967-0.762-1.582-1.611-1.582z"></path>
</symbol>
</defs>
</svg>
