<?xml version="1.0" encoding="UTF-8"?>
<svg width="19px" height="13px" viewBox="0 0 19 13" version="1.1" xmlns="http://www.w3.org/2000/svg" xmlns:xlink="http://www.w3.org/1999/xlink">
    <!-- Generator: Sketch 52.6 (67491) - http://www.bohemiancoding.com/sketch -->
    <title>arrow-left</title>
    <desc>Created with Sketch.</desc>
    <g id="Page-1" stroke="none" stroke-width="1" fill="none" fill-rule="evenodd">
        <g id="arrow-left" transform="translate(9.500000, 6.500000) scale(-1, 1) translate(-9.500000, -6.500000) " fill="#FFFFFF">
            <path d="M18.354,6.146 L12.354,0.146 C12.159,-0.049 11.842,-0.049 11.647,0.146 C11.452,0.341 11.452,0.658 11.647,0.853 L16.793,5.999 L0.5,5.999 C0.224,5.999 0,6.223 0,6.499 C0,6.775 0.224,6.999 0.5,6.999 L16.793,6.999 L11.647,12.145 C11.452,12.34 11.452,12.657 11.647,12.852 C11.745,12.95 11.873,12.998 12.001,12.998 C12.129,12.998 12.257,12.949 12.355,12.852 L18.355,6.852 C18.55,6.657 18.55,6.34 18.355,6.145 L18.354,6.146 Z" id="Path"></path>
        </g>
    </g>
</svg>